<svg xmlns="http://www.w3.org/2000/svg" width="512" height="512" viewBox="0 0 512 512">
<rect width="512" height="512" fill="#fff"/>
<rect x="8" y="8" width="496" height="496" rx="4" fill="none" stroke="#b22222" stroke-width="5"/>
<rect x="18" y="18" width="476" height="58" fill="#b22222"/>
<text x="256" y="43" text-anchor="middle" font-family="Georgia,serif" font-size="22" font-weight="bold" fill="#fff">St. Lorenzo Ruiz Parish</text>
<text x="256" y="64" text-anchor="middle" font-family="sans-serif" font-size="12" letter-spacing="3" fill="#f5d76e">AR NAVIGATION</text>
<text x="26" y="112" font-family="sans-serif" font-size="25" font-weight="bold" fill="#292524">Living Room entrance</text>
<text x="26" y="136" font-family="sans-serif" font-size="13" fill="#671313">MARKER 01 · ENTRANCE CHECKPOINT</text>
<circle cx="344" cy="319" r="11" fill="#b22222"/><path d="M319 398 l17 7 l-17 17 Z" fill="#292524"/><path d="M355 174 l16 9 l-5 16 Z" fill="#292524"/><circle cx="247" cy="217" r="9.5" fill="#292524"/><path d="M439 297 l21 0 l-14 21 Z" fill="#b22222"/><path d="M435 341 l14 9 l-9 14 Z" fill="#292524"/><circle cx="132" cy="230" r="10" fill="#292524"/><path d="M112 344 l8 2 l-6 8 Z" fill="#a07819"/><path d="M211 255 l11 2 l-9 11 Z" fill="#b22222"/><circle cx="387" cy="169" r="3.5" fill="#292524"/><path d="M390 305 l9 1 l-3 9 Z" fill="#292524"/><path d="M241 218 l7 5 l-6 7 Z" fill="#292524"/><circle cx="299" cy="339" r="9.5" fill="#b22222"/><path d="M402 416 l13 7 l-5 13 Z" fill="#292524"/><path d="M347 192 l23 4 l-10 23 Z" fill="#a07819"/><circle cx="170" cy="310" r="10" fill="#292524"/><path d="M226 225 l5 2 l-0 5 Z" fill="#b22222"/><path d="M275 191 l21 15 l-0 21 Z" fill="#292524"/><circle cx="129" cy="260" r="7.5" fill="#292524"/><path d="M254 225 l15 14 l-2 15 Z" fill="#292524"/><path d="M116 229 l14 10 l-6 14 Z" fill="#b22222"/><circle cx="312" cy="353" r="5.5" fill="#a07819"/><path d="M74 167 l13 3 l-12 13 Z" fill="#292524"/><path d="M91 270 l17 11 l-3 17 Z" fill="#292524"/><circle cx="164" cy="224" r="2.5" fill="#b22222"/><path d="M44 361 l9 6 l-3 9 Z" fill="#292524"/><path d="M59 164 l10 5 l-7 10 Z" fill="#292524"/><circle cx="104" cy="418" r="7" fill="#292524"/><path d="M61 373 l20 8 l-2 20 Z" fill="#b22222"/><path d="M109 258 l6 4 l-4 6 Z" fill="#292524"/><circle cx="446" cy="389" r="10" fill="#292524"/><path d="M395 307 l19 4 l-14 19 Z" fill="#292524"/><path d="M248 301 l14 13 l-14 14 Z" fill="#b22222"/><circle cx="319" cy="182" r="5" fill="#292524"/><path d="M201 396 l14 6 l-3 14 Z" fill="#292524"/><path d="M110 184 l8 2 l-7 8 Z" fill="#a07819"/><circle cx="111" cy="232" r="9.5" fill="#b22222"/><path d="M425 184 l8 0 l-1 8 Z" fill="#292524"/><path d="M392 184 l17 9 l-15 17 Z" fill="#292524"/><circle cx="323" cy="158" r="2.5" fill="#292524"/><path d="M32 343 l11 10 l-3 11 Z" fill="#b22222"/><path d="M257 212 l12 7 l-3 12 Z" fill="#292524"/><circle cx="132" cy="392" r="10" fill="#a07819"/><path d="M102 280 l16 6 l-6 16 Z" fill="#292524"/><path d="M34 339 l14 1 l-6 14 Z" fill="#b22222"/><circle cx="357" cy="201" r="5" fill="#292524"/><path d="M109 312 l8 5 l-2 8 Z" fill="#292524"/><path d="M100 269 l5 2 l-0 5 Z" fill="#292524"/><circle cx="192" cy="247" r="3.5" fill="#b22222"/><path d="M157 330 l14 7 l-12 14 Z" fill="#a07819"/><path d="M152 173 l18 0 l-0 18 Z" fill="#292524"/><circle cx="242" cy="240" r="8" fill="#292524"/><path d="M93 388 l7 0 l-7 7 Z" fill="#b22222"/><path d="M426 235 l20 14 l-2 20 Z" fill="#292524"/><circle cx="206" cy="373" r="10" fill="#292524"/><path d="M372 331 l11 7 l-8 11 Z" fill="#292524"/><path d="M193 294 l19 19 l-10 19 Z" fill="#b22222"/><circle cx="121" cy="221" r="3.5" fill="#292524"/><path d="M302 343 l13 11 l-8 13 Z" fill="#292524"/><path d="M198 332 l16 4 l-14 16 Z" fill="#292524"/><circle cx="404" cy="274" r="6" fill="#b22222"/><path d="M107 407 l16 1 l-12 16 Z" fill="#292524"/><path d="M206 181 l21 5 l-11 21 Z" fill="#292524"/><circle cx="170" cy="240" r="6.5" fill="#a07819"/><path d="M370 184 l6 6 l-1 6 Z" fill="#b22222"/><path d="M221 212 l10 2 l-7 10 Z" fill="#292524"/><circle cx="221" cy="166" r="9.5" fill="#292524"/><path d="M389 351 l19 4 l-14 19 Z" fill="#292524"/><path d="M39 213 l22 11 l-2 22 Z" fill="#b22222"/><circle cx="450" cy="243" r="3.5" fill="#292524"/><path d="M398 367 l16 1 l-15 16 Z" fill="#a07819"/><path d="M85 391 l22 20 l-21 22 Z" fill="#292524"/><circle cx="254" cy="240" r="9.5" fill="#b22222"/><path d="M241 302 l20 1 l-17 20 Z" fill="#292524"/><path d="M257 287 l10 8 l-7 10 Z" fill="#292524"/><circle cx="300" cy="392" r="6" fill="#292524"/><path d="M365 203 l21 11 l-15 21 Z" fill="#b22222"/><path d="M163 377 l7 6 l-2 7 Z" fill="#a07819"/><circle cx="166" cy="204" r="9" fill="#292524"/><path d="M153 198 l19 5 l-14 19 Z" fill="#292524"/><path d="M114 206 l23 20 l-7 23 Z" fill="#b22222"/><circle cx="213" cy="243" r="11" fill="#292524"/><path d="M302 290 l14 6 l-10 14 Z" fill="#292524"/><path d="M452 182 l23 4 l-10 23 Z" fill="#292524"/><circle cx="363" cy="256" r="8.5" fill="#b22222"/><path d="M378 308 l23 7 l-17 23 Z" fill="#292524"/><path d="M311 348 l21 17 l-5 21 Z" fill="#292524"/><circle cx="387" cy="315" r="4.5" fill="#292524"/><path d="M435 418 l16 13 l-11 16 Z" fill="#b22222"/><path d="M45 261 l8 3 l-3 8 Z" fill="#292524"/><circle cx="280" cy="204" r="5.5" fill="#292524"/><path d="M113 165 l21 16 l-2 21 Z" fill="#a07819"/><path d="M424 373 l6 3 l-4 6 Z" fill="#b22222"/><circle cx="286" cy="271" r="6" fill="#292524"/><path d="M176 277 l5 3 l-3 5 Z" fill="#292524"/><path d="M249 407 l9 1 l-3 9 Z" fill="#292524"/><circle cx="239" cy="193" r="11.5" fill="#b22222"/><path d="M301 371 l8 4 l-7 8 Z" fill="#292524"/><path d="M358 173 l22 3 l-18 22 Z" fill="#a07819"/><circle cx="287" cy="387" r="5" fill="#292524"/><path d="M105 281 l6 1 l-2 6 Z" fill="#b22222"/><path d="M142 158 l18 1 l-17 18 Z" fill="#292524"/><circle cx="419" cy="206" r="6" fill="#292524"/><path d="M80 323 l13 11 l-13 13 Z" fill="#292524"/><path d="M359 218 l11 4 l-8 11 Z" fill="#b22222"/><circle cx="374" cy="263" r="9.5" fill="#a07819"/><path d="M414 315 l9 1 l-2 9 Z" fill="#292524"/><path d="M342 397 l10 0 l-1 10 Z" fill="#292524"/><circle cx="71" cy="416" r="6" fill="#b22222"/><path d="M287 271 l20 3 l-6 20 Z" fill="#292524"/><path d="M362 218 l14 4 l-3 14 Z" fill="#292524"/><circle cx="355" cy="168" r="10.5" fill="#292524"/><path d="M216 215 l18 12 l-17 18 Z" fill="#b22222"/><path d="M209 187 l15 4 l-2 15 Z" fill="#292524"/><circle cx="281" cy="188" r="6.5" fill="#292524"/><path d="M268 175 l8 1 l-6 8 Z" fill="#292524"/><path d="M127 389 l6 1 l-6 6 Z" fill="#b22222"/><circle cx="69" cy="340" r="6" fill="#292524"/><path d="M372 186 l7 1 l-6 7 Z" fill="#292524"/><path d="M101 390 l16 14 l-13 16 Z" fill="#a07819"/><circle cx="453" cy="201" r="5" fill="#b22222"/><path d="M270 188 l10 0 l-6 10 Z" fill="#292524"/><path d="M217 290 l14 4 l-3 14 Z" fill="#292524"/><circle cx="368" cy="248" r="3" fill="#292524"/><path d="M264 345 l13 11 l-7 13 Z" fill="#b22222"/><path d="M270 220 l14 8 l-5 14 Z" fill="#292524"/><circle cx="201" cy="203" r="11" fill="#a07819"/><path d="M138 394 l14 11 l-0 14 Z" fill="#292524"/><path d="M212 207 l7 3 l-2 7 Z" fill="#b22222"/><circle cx="318" cy="327" r="8.5" fill="#292524"/><path d="M247 202 l19 14 l-13 19 Z" fill="#292524"/><path d="M312 268 l9 1 l-7 9 Z" fill="#292524"/><circle cx="34" cy="170" r="3.5" fill="#b22222"/><path d="M180 355 l21 10 l-12 21 Z" fill="#a07819"/><path d="M293 271 l15 14 l-7 15 Z" fill="#292524"/><circle cx="454" cy="178" r="3" fill="#292524"/><path d="M285 337 l18 5 l-2 18 Z" fill="#b22222"/><path d="M73 230 l5 3 l-5 5 Z" fill="#292524"/><circle cx="210" cy="400" r="9.5" fill="#292524"/><path d="M235 405 l15 8 l-3 15 Z" fill="#292524"/><path d="M190 162 l6 4 l-5 6 Z" fill="#b22222"/><circle cx="308" cy="208" r="4" fill="#292524"/><path d="M401 389 l20 1 l-1 20 Z" fill="#292524"/><path d="M403 382 l10 4 l-5 10 Z" fill="#292524"/><circle cx="92" cy="250" r="9.5" fill="#b22222"/><path d="M296 187 l18 14 l-15 18 Z" fill="#292524"/><path d="M320 199 l7 4 l-5 7 Z" fill="#292524"/><circle cx="348" cy="340" r="3" fill="#a07819"/><path d="M124 276 l12 3 l-7 12 Z" fill="#b22222"/><path d="M121 394 l7 3 l-1 7 Z" fill="#292524"/><circle cx="272" cy="287" r="4" fill="#292524"/><path d="M349 179 l21 9 l-7 21 Z" fill="#292524"/><path d="M411 264 l8 6 l-2 8 Z" fill="#b22222"/><circle cx="205" cy="371" r="10.5" fill="#292524"/><path d="M180 246 l9 4 l-2 9 Z" fill="#a07819"/><path d="M198 226 l21 12 l-16 21 Z" fill="#292524"/><circle cx="86" cy="168" r="9.5" fill="#b22222"/><path d="M144 323 l22 6 l-16 22 Z" fill="#292524"/><path d="M414 361 l23 8 l-17 23 Z" fill="#292524"/><circle cx="233" cy="281" r="5" fill="#292524"/>
<path d="M26 463H486" stroke="#f5d76e" stroke-width="3"/>
<text x="256" y="489" text-anchor="middle" font-family="sans-serif" font-size="14" fill="#671313">Scan the complete image to confirm your location</text>
</svg>
