<svg xmlns="http://www.w3.org/2000/svg" width="640" height="640" viewBox="0 0 640 640">
<rect width="640" height="640" fill="#fff"/>
<rect x="10" y="10" width="620" height="620" rx="5" fill="none" stroke="#b22222" stroke-width="6"/>
<rect x="22" y="22" width="596" height="66" fill="#b22222"/>
<text x="320" y="53" text-anchor="middle" font-family="Georgia,serif" font-size="28" font-weight="bold" fill="#fff">St. Lorenzo Ruiz Parish</text>
<text x="320" y="76" text-anchor="middle" font-family="sans-serif" font-size="14" letter-spacing="3" fill="#f5d76e">AR NAVIGATION</text>
<text x="30" y="125" font-family="sans-serif" font-size="28" font-weight="bold" fill="#292524">Right Stairs — 2nd Floor</text>
<text x="30" y="193" font-family="sans-serif" font-size="19" font-weight="bold" fill="#671313">P07 · 2nd Floor - Main Church</text>
<circle cx="422" cy="440" r="10.5" fill="#b22222"/>
<path d="M554 229 l25 3 l-14 25 Z" fill="#292524"/>
<path d="M436 478 l21 12 l-21 21 Z" fill="#292524"/>
<circle cx="503" cy="516" r="4.5" fill="#292524"/>
<path d="M277 273 l22 9 l-21 22 Z" fill="#292524"/>
<path d="M263 463 l28 19 l-26 28 Z" fill="#b22222"/>
<circle cx="246" cy="451" r="11.5" fill="#292524"/>
<path d="M458 322 l28 22 l-13 28 Z" fill="#9a7418"/>
<path d="M362 417 l15 5 l-15 15 Z" fill="#292524"/>
<circle cx="37" cy="414" r="12" fill="#292524"/>
<path d="M265 365 l20 5 l-10 20 Z" fill="#b22222"/>
<path d="M265 481 l8 0 l-3 8 Z" fill="#292524"/>
<circle cx="115" cy="373" r="7.5" fill="#292524"/>
<path d="M170 527 l12 0 l-1 12 Z" fill="#292524"/>
<path d="M323 527 l15 2 l-13 15 Z" fill="#9a7418"/>
<circle cx="94" cy="267" r="8" fill="#b22222"/>
<path d="M150 284 l14 6 l-12 14 Z" fill="#292524"/>
<path d="M153 501 l11 5 l-3 11 Z" fill="#292524"/>
<circle cx="463" cy="409" r="7" fill="#292524"/>
<path d="M487 328 l23 2 l-19 23 Z" fill="#292524"/>
<path d="M475 532 l29 9 l-23 29 Z" fill="#b22222"/>
<circle cx="268" cy="521" r="14.5" fill="#9a7418"/>
<path d="M423 471 l24 20 l-20 24 Z" fill="#292524"/>
<path d="M455 264 l22 21 l-10 22 Z" fill="#292524"/>
<circle cx="530" cy="348" r="4" fill="#292524"/>
<path d="M332 382 l12 3 l-4 12 Z" fill="#b22222"/>
<path d="M131 261 l10 2 l-8 10 Z" fill="#292524"/>
<circle cx="307" cy="303" r="11.5" fill="#292524"/>
<path d="M76 465 l29 4 l-19 29 Z" fill="#9a7418"/>
<path d="M106 297 l27 25 l-24 27 Z" fill="#292524"/>
<circle cx="374" cy="381" r="9.5" fill="#b22222"/>
<path d="M549 391 l11 8 l-8 11 Z" fill="#292524"/>
<path d="M393 267 l27 27 l-7 27 Z" fill="#292524"/>
<circle cx="202" cy="452" r="7.5" fill="#292524"/>
<path d="M185 500 l21 16 l-6 21 Z" fill="#292524"/>
<path d="M164 527 l21 11 l-5 21 Z" fill="#b22222"/>
<circle cx="476" cy="415" r="12" fill="#292524"/>
<path d="M132 469 l16 15 l-4 16 Z" fill="#292524"/>
<path d="M387 481 l14 10 l-2 14 Z" fill="#292524"/>
<circle cx="160" cy="437" r="15" fill="#292524"/>
<path d="M184 359 l22 21 l-19 22 Z" fill="#b22222"/>
<path d="M420 281 l25 12 l-1 25 Z" fill="#292524"/>
<circle cx="109" cy="500" r="10.5" fill="#9a7418"/>
<path d="M126 413 l15 4 l-3 15 Z" fill="#292524"/>
<path d="M138 322 l16 6 l-10 16 Z" fill="#292524"/>
<circle cx="517" cy="251" r="4" fill="#b22222"/>
<path d="M548 506 l24 6 l-18 24 Z" fill="#292524"/>
<path d="M430 529 l29 5 l-16 29 Z" fill="#292524"/>
<circle cx="191" cy="449" r="10" fill="#292524"/>
<path d="M541 467 l30 23 l-6 30 Z" fill="#9a7418"/>
<path d="M127 344 l9 6 l-1 9 Z" fill="#b22222"/>
<circle cx="290" cy="457" r="12.5" fill="#292524"/>
<path d="M285 236 l24 6 l-6 24 Z" fill="#292524"/>
<path d="M324 254 l22 20 l-13 22 Z" fill="#292524"/>
<circle cx="268" cy="406" r="12" fill="#292524"/>
<path d="M347 477 l13 6 l-8 13 Z" fill="#b22222"/>
<path d="M312 401 l22 10 l-15 22 Z" fill="#9a7418"/>
<circle cx="47" cy="268" r="10.5" fill="#292524"/>
<path d="M339 481 l15 9 l-10 15 Z" fill="#292524"/>
<path d="M451 449 l15 13 l-5 15 Z" fill="#292524"/>
<circle cx="344" cy="408" r="13" fill="#b22222"/>
<path d="M158 403 l23 5 l-8 23 Z" fill="#292524"/>
<path d="M490 287 l22 21 l-14 22 Z" fill="#292524"/>
<circle cx="349" cy="394" r="14" fill="#9a7418"/>
<path d="M183 393 l11 7 l-3 11 Z" fill="#292524"/>
<path d="M336 501 l15 0 l-7 15 Z" fill="#b22222"/>
<circle cx="264" cy="371" r="9.5" fill="#292524"/>
<path d="M118 527 l10 6 l-6 10 Z" fill="#292524"/>
<path d="M524 315 l27 5 l-12 27 Z" fill="#292524"/>
<circle cx="240" cy="248" r="7.5" fill="#292524"/>
<path d="M515 369 l25 22 l-14 25 Z" fill="#b22222"/>
<path d="M192 516 l18 16 l-9 18 Z" fill="#292524"/>
<circle cx="338" cy="389" r="10" fill="#292524"/>
<path d="M562 245 l24 12 l-19 24 Z" fill="#292524"/>
<path d="M535 375 l17 13 l-12 17 Z" fill="#292524"/>
<circle cx="120" cy="452" r="13" fill="#b22222"/>
<path d="M134 342 l16 10 l-12 16 Z" fill="#292524"/>
<path d="M140 524 l17 11 l-10 17 Z" fill="#9a7418"/>
<circle cx="485" cy="259" r="13.5" fill="#292524"/>
<path d="M417 380 l20 6 l-4 20 Z" fill="#292524"/>
<path d="M39 324 l26 19 l-17 26 Z" fill="#b22222"/>
<circle cx="316" cy="507" r="6" fill="#292524"/>
<path d="M525 375 l18 2 l-6 18 Z" fill="#292524"/>
<path d="M67 267 l28 4 l-19 28 Z" fill="#292524"/>
<circle cx="427" cy="444" r="8" fill="#9a7418"/>
<path d="M117 491 l26 2 l-23 26 Z" fill="#b22222"/>
<path d="M230 516 l9 9 l-8 9 Z" fill="#292524"/>
<circle cx="423" cy="404" r="8.5" fill="#292524"/>
<path d="M61 383 l23 5 l-2 23 Z" fill="#292524"/>
<path d="M80 406 l20 9 l-8 20 Z" fill="#292524"/>
<circle cx="282" cy="423" r="11.5" fill="#b22222"/>
<path d="M525 472 l21 6 l-11 21 Z" fill="#9a7418"/>
<path d="M434 221 l22 14 l-6 22 Z" fill="#292524"/>
<circle cx="122" cy="432" r="4" fill="#292524"/>
<path d="M176 317 l16 11 l-8 16 Z" fill="#292524"/>
<path d="M513 264 l25 15 l-9 25 Z" fill="#b22222"/>
<circle cx="533" cy="514" r="14.5" fill="#292524"/>
<path d="M188 264 l16 6 l-8 16 Z" fill="#292524"/>
<path d="M564 519 l14 1 l-5 14 Z" fill="#9a7418"/>
<circle cx="538" cy="510" r="4.5" fill="#292524"/>
<path d="M57 233 l30 17 l-3 30 Z" fill="#b22222"/>
<path d="M48 401 l16 10 l-2 16 Z" fill="#292524"/>
<circle cx="523" cy="530" r="14.5" fill="#292524"/>
<path d="M556 377 l10 6 l-5 10 Z" fill="#292524"/>
<path d="M521 267 l11 4 l-1 11 Z" fill="#292524"/>
<circle cx="536" cy="377" r="4.5" fill="#b22222"/>
<path d="M206 318 l13 0 l-11 13 Z" fill="#292524"/>
<path d="M120 512 l30 30 l-26 30 Z" fill="#292524"/>
<circle cx="564" cy="294" r="4" fill="#292524"/>
<path d="M247 232 l21 17 l-10 21 Z" fill="#292524"/>
<path d="M493 296 l22 14 l-2 22 Z" fill="#b22222"/>
<circle cx="240" cy="456" r="11" fill="#292524"/>
<path d="M540 534 l11 6 l-10 11 Z" fill="#9a7418"/>
<path d="M409 442 l13 11 l-7 13 Z" fill="#292524"/>
<circle cx="323" cy="258" r="13.5" fill="#292524"/>
<path d="M231 394 l26 17 l-3 26 Z" fill="#b22222"/>
<path d="M175 491 l13 0 l-1 13 Z" fill="#292524"/>
<circle cx="467" cy="459" r="8.5" fill="#292524"/>
<path d="M276 464 l9 3 l-1 9 Z" fill="#292524"/>
<path d="M229 288 l11 9 l-2 11 Z" fill="#9a7418"/>
<circle cx="180" cy="483" r="4" fill="#b22222"/>
<path d="M178 414 l27 8 l-13 27 Z" fill="#292524"/>
<path d="M172 237 l15 5 l-6 15 Z" fill="#292524"/>
<circle cx="247" cy="419" r="10.5" fill="#292524"/>
<path d="M568 476 l18 16 l-1 18 Z" fill="#292524"/>
<path d="M69 361 l15 1 l-12 15 Z" fill="#b22222"/>
<circle cx="154" cy="524" r="10" fill="#9a7418"/>
<path d="M485 249 l11 8 l-9 11 Z" fill="#292524"/>
<path d="M408 336 l18 4 l-8 18 Z" fill="#292524"/>
<circle cx="394" cy="278" r="13.5" fill="#292524"/>
<path d="M173 314 l22 20 l-2 22 Z" fill="#b22222"/>
<path d="M475 388 l26 20 l-6 26 Z" fill="#292524"/>
<circle cx="422" cy="351" r="7.5" fill="#292524"/>
<path d="M453 334 l18 7 l-4 18 Z" fill="#9a7418"/>
<path d="M309 316 l16 1 l-15 16 Z" fill="#292524"/>
<circle cx="336" cy="273" r="5.5" fill="#b22222"/>
<path d="M434 349 l18 16 l-10 18 Z" fill="#292524"/>
<path d="M332 481 l26 19 l-20 26 Z" fill="#292524"/>
<circle cx="158" cy="531" r="6.5" fill="#292524"/>
<path d="M261 363 l9 1 l-4 9 Z" fill="#292524"/>
<path d="M519 406 l29 21 l-16 29 Z" fill="#b22222"/>
<circle cx="511" cy="470" r="15" fill="#292524"/>
<path d="M519 467 l19 6 l-13 19 Z" fill="#292524"/>
<path d="M410 378 l8 0 l-1 8 Z" fill="#292524"/>
<circle cx="47" cy="489" r="13" fill="#292524"/>
<path d="M568 247 l14 4 l-13 14 Z" fill="#b22222"/>
<path d="M410 325 l9 8 l-3 9 Z" fill="#292524"/>
<circle cx="446" cy="267" r="14.5" fill="#9a7418"/>
<path d="M368 240 l28 26 l-1 28 Z" fill="#292524"/>
<path d="M314 366 l21 12 l-16 21 Z" fill="#292524"/>
<circle cx="243" cy="478" r="6" fill="#b22222"/>
<path d="M178 519 l18 0 l-8 18 Z" fill="#292524"/>
<path d="M261 221 l10 9 l-2 10 Z" fill="#292524"/>
<circle cx="470" cy="508" r="12.5" fill="#292524"/>
<path d="M491 280 l23 18 l-4 23 Z" fill="#9a7418"/>
<path d="M524 516 l27 3 l-8 27 Z" fill="#b22222"/>
<circle cx="501" cy="461" r="9.5" fill="#292524"/>
<path d="M38 363 l13 4 l-10 13 Z" fill="#292524"/>
<path d="M427 266 l10 4 l-7 10 Z" fill="#292524"/>
<circle cx="528" cy="289" r="5" fill="#292524"/>
<path d="M125 337 l17 2 l-1 17 Z" fill="#b22222"/>
<path d="M291 267 l23 7 l-12 23 Z" fill="#9a7418"/>
<circle cx="141" cy="331" r="6.5" fill="#292524"/>
<path d="M315 283 l10 0 l-8 10 Z" fill="#292524"/>
<path d="M112 522 l23 6 l-11 23 Z" fill="#292524"/>
<circle cx="312" cy="437" r="7.5" fill="#b22222"/>
<path d="M343 412 l9 8 l-2 9 Z" fill="#292524"/>
<path d="M395 462 l20 2 l-12 20 Z" fill="#292524"/>
<circle cx="338" cy="385" r="4.5" fill="#9a7418"/>
<path d="M487 405 l26 16 l-25 26 Z" fill="#292524"/>
<path d="M332 315 l21 8 l-3 21 Z" fill="#b22222"/>
<circle cx="450" cy="249" r="11.5" fill="#292524"/>
<path d="M107 238 l22 10 l-1 22 Z" fill="#292524"/>
<path d="M105 400 l17 14 l-15 17 Z" fill="#292524"/>
<circle cx="400" cy="254" r="8" fill="#292524"/>
<path d="M356 251 l19 3 l-10 19 Z" fill="#b22222"/>
<path d="M361 430 l22 1 l-22 22 Z" fill="#292524"/>
<circle cx="197" cy="468" r="9" fill="#292524"/>
<path d="M89 353 l8 2 l-6 8 Z" fill="#292524"/>
<path d="M395 500 l10 5 l-7 10 Z" fill="#292524"/>
<path d="M30 576H610" stroke="#f5d76e" stroke-width="4"/>
<text x="320" y="606" text-anchor="middle" font-family="sans-serif" font-size="17" fill="#671313">Scan the complete image · Confirm the name and floor</text>
</svg>
